<svg width="31" height="31" viewBox="0 0 31 31" fill="none" xmlns="http://www.w3.org/2000/svg">
<path d="M15.5 1.9375C12.8176 1.9375 10.1954 2.73293 7.96508 4.22319C5.73474 5.71346 3.9964 7.83163 2.96989 10.3099C1.94338 12.7881 1.67479 15.515 2.19811 18.1459C2.72142 20.7768 4.01312 23.1934 5.90987 25.0901C7.80662 26.9869 10.2232 28.2786 12.8541 28.8019C15.485 29.3252 18.2119 29.0566 20.6902 28.0301C23.1684 27.0036 25.2865 25.2653 26.7768 23.0349C28.2671 20.8046 29.0625 18.1824 29.0625 15.5C29.0625 11.903 27.6336 8.45333 25.0901 5.90986C22.5467 3.3664 19.097 1.9375 15.5 1.9375ZM13.5625 20.9153L8.71876 16.0716L10.2591 14.5312L13.5625 17.8347L20.7409 10.6562L22.2871 12.1927L13.5625 20.9153Z" fill="#45A76A"/>
</svg>
