<svg width="15" height="15" viewBox="0 0 15 15" fill="none" xmlns="http://www.w3.org/2000/svg">
<path d="M7.08333 14.1667C3.17121 14.1667 0 10.9955 0 7.08333C0 3.17121 3.17121 0 7.08333 0C10.9955 0 14.1667 3.17121 14.1667 7.08333C14.1667 10.9955 10.9955 14.1667 7.08333 14.1667ZM7.08333 12.75C8.58623 12.75 10.0276 12.153 11.0903 11.0903C12.153 10.0276 12.75 8.58623 12.75 7.08333C12.75 5.58044 12.153 4.1391 11.0903 3.07639C10.0276 2.01369 8.58623 1.41667 7.08333 1.41667C5.58044 1.41667 4.1391 2.01369 3.07639 3.07639C2.01369 4.1391 1.41667 5.58044 1.41667 7.08333C1.41667 8.58623 2.01369 10.0276 3.07639 11.0903C4.1391 12.153 5.58044 12.75 7.08333 12.75ZM6.375 9.20833H7.79167V10.625H6.375V9.20833ZM7.79167 8.04312V8.5H6.375V7.4375C6.375 7.24964 6.44963 7.06947 6.58247 6.93663C6.7153 6.80379 6.89547 6.72917 7.08333 6.72917C7.28455 6.72915 7.48164 6.672 7.65165 6.56436C7.82166 6.45672 7.9576 6.30301 8.04367 6.12112C8.12974 5.93923 8.16239 5.73665 8.13782 5.53693C8.11325 5.33721 8.03247 5.14858 7.90488 4.99298C7.77729 4.83738 7.60815 4.7212 7.41711 4.65798C7.22608 4.59475 7.02103 4.58707 6.8258 4.63583C6.63058 4.68459 6.45321 4.78779 6.31434 4.93341C6.17548 5.07903 6.08081 5.2611 6.04138 5.45842L4.65163 5.18004C4.73778 4.74943 4.93674 4.34943 5.22815 4.02092C5.51957 3.6924 5.89299 3.44716 6.31025 3.31027C6.72751 3.17337 7.17364 3.14974 7.60302 3.24177C8.03241 3.3338 8.42966 3.53821 8.75416 3.83408C9.07866 4.12996 9.31878 4.5067 9.44995 4.92579C9.58113 5.34489 9.59867 5.79129 9.50078 6.21938C9.40289 6.64748 9.19307 7.04189 8.89279 7.36232C8.5925 7.68275 8.21251 7.91769 7.79167 8.04312Z" fill="#0B1F56"/>
</svg>
